<?xml version="1.0" encoding="UTF-8" standalone="no"?>
<!-- Created with Inkscape (http://www.inkscape.org/) -->

<svg
   xmlns:dc="http://purl.org/dc/elements/1.1/"
   xmlns:cc="http://creativecommons.org/ns#"
   xmlns:rdf="http://www.w3.org/1999/02/22-rdf-syntax-ns#"
   xmlns:svg="http://www.w3.org/2000/svg"
   xmlns="http://www.w3.org/2000/svg"
   version="1.1"
   width="37.5"
   height="37.5"
   id="svg4113">
  <defs
     id="defs4115" />
  <metadata
     id="metadata4118">
    <rdf:RDF>
      <cc:Work
         rdf:about="">
        <dc:format>image/svg+xml</dc:format>
        <dc:type
           rdf:resource="http://purl.org/dc/dcmitype/StillImage" />
        <dc:title></dc:title>
      </cc:Work>
    </rdf:RDF>
  </metadata>
  <g
     transform="translate(0,-1014.8622)"
     id="layer1">
    <path
       d="m 33.833354,1029.4174 c -0.454586,-0.8114 -1.480603,-1.0977 -2.291449,-0.6465 l -3.248771,1.8217 c -0.811519,0.4546 -1.101107,1.4816 -0.646521,2.2932 0.309117,0.5488 0.881222,0.8586 1.4705,0.8586 0.278812,0 0.560992,-0.067 0.821621,-0.2121 l 3.248772,-1.8218 c 0.810846,-0.4545 1.100771,-1.4815 0.645848,-2.2931 z m -14.7279,-5.0745 c 0.260292,0.1448 0.542472,0.2155 0.821284,0.2155 0.589278,0 1.161383,-0.3098 1.4705,-0.862 l 1.820027,-3.2495 c 0.454249,-0.8114 0.164998,-1.8351 -0.645848,-2.2897 -0.811183,-0.4546 -1.836863,-0.165 -2.292122,0.6465 l -1.81969,3.2495 c -0.454585,0.8081 -0.165334,1.8352 0.645849,2.2897 z m 6.061141,4.1654 c 0.430678,0 0.861356,-0.1651 1.190342,-0.495 l 3.208027,-3.2091 c 0.657634,-0.6566 0.657634,-1.7207 0,-2.3807 -0.656961,-0.6566 -1.723721,-0.6566 -2.380682,0 l -3.208364,3.2091 c -0.657634,0.6566 -0.657634,1.724 0,2.3807 0.328312,0.3299 0.759663,0.495 1.190677,0.495 z m -0.251874,13.2705 c -0.557961,0.5522 -4.873494,-0.7711 -9.031437,-4.9298 -4.15323,-4.1585 -5.47961,-8.4754 -4.922658,-9.031 0.552574,-0.559 4.873495,0.7677 9.026051,4.9263 4.158279,4.1553 5.484996,8.4755 4.928044,9.0345 z M 9.3183933,1025.6326 c -1.8887194,1.8857 -10.14837221,13.6611 -3.0113769,20.793 7.1319436,7.1388 18.9080686,-1.1212 20.7977976,-3.0103 1.888719,-1.8857 -0.563013,-7.398 -5.475232,-12.3109 -4.912218,-4.9162 -10.421459,-7.3642 -12.3111887,-5.4718 z"
       id="path11"
       style="fill:#0c1007;fill-rule:nonzero;stroke:none" />
  </g>
</svg>
