<?xml version="1.0" encoding="UTF-8" standalone="no"?>
<!-- Created with Inkscape (http://www.inkscape.org/) -->

<svg
   xmlns:dc="http://purl.org/dc/elements/1.1/"
   xmlns:cc="http://creativecommons.org/ns#"
   xmlns:rdf="http://www.w3.org/1999/02/22-rdf-syntax-ns#"
   xmlns:svg="http://www.w3.org/2000/svg"
   xmlns="http://www.w3.org/2000/svg"
   version="1.1"
   width="37.5"
   height="37.5"
   id="svg4113">
  <defs
     id="defs4115" />
  <metadata
     id="metadata4118">
    <rdf:RDF>
      <cc:Work
         rdf:about="">
        <dc:format>image/svg+xml</dc:format>
        <dc:type
           rdf:resource="http://purl.org/dc/dcmitype/StillImage" />
        <dc:title></dc:title>
      </cc:Work>
    </rdf:RDF>
  </metadata>
  <g
     transform="translate(0,-1014.8622)"
     id="layer1">
    <path
       d="m 17.856466,1032.8424 -11.5741539,-7.955 c -0.9192469,-0.6139 -1.6745721,-0.1639 -1.6745721,1.0029 l 0,15.4439 c 0,1.1668 0.7553252,1.6168 1.6745721,1.0028 l 11.5741539,-7.955 c 0,0 0.449981,-0.3214 0.449981,-0.7681 0,-0.45 -0.449981,-0.7715 -0.449981,-0.7715 z m 14.585812,0 -11.991993,-7.955 c -0.919246,-0.6139 -1.674572,-0.1639 -1.674572,1.0029 l 0,15.4439 c 0,1.1668 0.755326,1.6168 1.674572,1.0028 l 11.991993,-7.955 c 0,0 0.449982,-0.3214 0.449982,-0.7681 0,-0.45 -0.449982,-0.7715 -0.449982,-0.7715 z"
       id="path69"
       style="fill:#0c1007;fill-rule:nonzero;stroke:none" />
  </g>
</svg>
