<?xml version="1.0" encoding="UTF-8" standalone="no"?>
<!-- Created with Inkscape (http://www.inkscape.org/) -->

<svg
   xmlns:dc="http://purl.org/dc/elements/1.1/"
   xmlns:cc="http://creativecommons.org/ns#"
   xmlns:rdf="http://www.w3.org/1999/02/22-rdf-syntax-ns#"
   xmlns:svg="http://www.w3.org/2000/svg"
   xmlns="http://www.w3.org/2000/svg"
   version="1.1"
   width="37.5"
   height="37.5"
   id="svg4113">
  <defs
     id="defs4115" />
  <metadata
     id="metadata4118">
    <rdf:RDF>
      <cc:Work
         rdf:about="">
        <dc:format>image/svg+xml</dc:format>
        <dc:type
           rdf:resource="http://purl.org/dc/dcmitype/StillImage" />
        <dc:title></dc:title>
      </cc:Work>
    </rdf:RDF>
  </metadata>
  <g
     transform="translate(0,-1014.8622)"
     id="layer1">
    <path
       d="m 19.223762,1033.6137 c 0,0.4771 0.480628,0.8204 0.480628,0.8204 l 12.362449,8.4968 c 0.981855,0.6558 1.788624,0.1751 1.788624,-1.0711 l 0,-16.4958 c 0,-1.2428 -0.806769,-1.7269 -1.788624,-1.0711 l -12.362449,8.4968 c 0,0 -0.480628,0.3433 -0.480628,0.8239 z m -15.5792252,0 c 0,0.4771 0.4806283,0.8204 0.4806283,0.8204 l 12.8087459,8.4968 c 0.981855,0.6558 1.788624,0.1751 1.788624,-1.0711 l 0,-16.4958 c 0,-1.2428 -0.806769,-1.7269 -1.788624,-1.0711 l -12.8087458,8.4968 c 0,0 -0.4806284,0.3433 -0.4806284,0.824 z"
       id="path71"
       style="fill:#0c1007;fill-rule:nonzero;stroke:none" />
  </g>
</svg>
